<?xml version="1.0" standalone="no"?>
<!DOCTYPE svg PUBLIC "-//W3C//DTD SVG 20010904//EN"
 "http://www.w3.org/TR/2001/REC-SVG-20010904/DTD/svg10.dtd">
<svg version="1.0" xmlns="http://www.w3.org/2000/svg"
 width="600.000000pt" height="600.000000pt" viewBox="0 0 600.000000 600.000000"
 preserveAspectRatio="xMidYMid meet">
<metadata>
Created by potrace 1.14, written by Peter Selinger 2001-2017
</metadata>
<g transform="translate(0.000000,600.000000) scale(0.100000,-0.100000)"
fill="#000000" stroke="none">
<path d="M998 5670 c-168 -35 -312 -114 -433 -235 -124 -123 -201 -266 -236
-440 -19 -92 -19 -153 -17 -2032 l3 -1938 28 -88 c83 -267 257 -462 498 -560
162 -66 4 -62 2164 -62 1882 0 1973 1 2035 18 326 93 566 345 631 663 19 90
19 157 17 2031 l-3 1938 -23 80 c-87 308 -311 532 -617 618 l-80 22 -1940 2
c-1849 2 -1944 1 -2027 -17z m2217 -515 c211 -14 482 -82 696 -173 697 -299
1166 -886 1249 -1565 16 -122 8 -366 -15 -467 -56 -252 -178 -474 -359 -655
-184 -183 -401 -303 -656 -361 -58 -13 -146 -18 -381 -23 -283 -6 -309 -7
-328 -25 -36 -32 -28 -87 20 -148 80 -101 119 -216 119 -348 0 -253 -156 -465
-397 -540 -132 -41 -417 -24 -680 41 -606 149 -1133 572 -1418 1137 -105 211
-175 435 -210 677 -22 146 -21 433 0 585 67 473 278 894 620 1235 277 278 603
468 965 564 269 71 453 87 775 66z"/>
<path d="M2820 4674 c-385 -48 -733 -218 -1005 -489 -244 -245 -401 -541 -472
-893 -28 -137 -25 -481 6 -622 145 -677 661 -1193 1331 -1330 58 -12 160 -24
227 -27 120 -6 121 -6 147 20 37 37 34 76 -9 129 -85 107 -128 226 -128 363 0
295 211 527 508 559 28 3 158 6 290 7 263 1 329 10 453 60 260 104 450 335
508 619 21 104 14 281 -15 410 -115 507 -524 928 -1079 1110 -188 61 -314 82
-537 85 -104 2 -206 1 -225 -1z m618 -313 c66 -34 128 -97 159 -160 24 -49 28
-68 28 -146 0 -107 -22 -163 -95 -235 -72 -73 -128 -95 -235 -95 -80 0 -97 3
-148 29 -68 35 -130 98 -160 164 -32 69 -31 219 1 280 44 83 116 147 201 179
56 21 195 12 249 -16z m-966 -194 c96 -47 157 -122 184 -226 38 -151 -37 -311
-181 -382 -42 -20 -64 -24 -145 -24 -112 0 -167 21 -238 93 -67 67 -97 139
-96 237 1 86 18 138 67 203 92 122 273 166 409 99z m1741 -580 c96 -48 169
-145 185 -249 22 -146 -51 -286 -190 -360 -36 -19 -58 -23 -138 -23 -84 0
-102 3 -152 28 -144 71 -220 244 -174 398 30 100 120 193 220 225 66 22 183
13 249 -19z m-2163 -369 c82 -26 156 -92 198 -178 23 -48 27 -67 27 -145 -1
-78 -4 -97 -28 -143 -37 -70 -91 -123 -163 -158 -50 -24 -71 -29 -139 -29 -71
0 -88 4 -147 33 -73 36 -124 87 -160 161 -19 38 -23 63 -23 141 0 84 3 101 28
148 80 152 245 221 407 170z"/>
</g>
</svg>
